<?xml version="1.0" encoding="UTF-8" standalone="no"?>
<!DOCTYPE svg PUBLIC "-//W3C//DTD SVG 1.1//EN" "http://www.w3.org/Graphics/SVG/1.1/DTD/svg11.dtd">
<svg width="100%" height="100%" viewBox="0 0 1838 1838" version="1.1" xmlns="http://www.w3.org/2000/svg" xmlns:xlink="http://www.w3.org/1999/xlink" xml:space="preserve" xmlns:serif="http://www.serif.com/" style="fill-rule:evenodd;clip-rule:evenodd;stroke-linejoin:round;stroke-miterlimit:2;">
    <g transform="matrix(1,0,0,1,-23.20437,-4175)">
        <g id="favicon" transform="matrix(1.021111,0,0,0.937755,23.20437,4175)">
            <rect x="0" y="0" width="1800" height="1960" style="fill:none;"/>
            <clipPath id="_clip1">
                <rect x="0" y="0" width="1800" height="1960"/>
            </clipPath>
            <g clip-path="url(#_clip1)">
                <g transform="matrix(1.034483,0,0,1.126437,-74.694175,-4691.609195)">
                    <rect x="72.204" y="4165" width="1740" height="1740" style="fill:white;"/>
                </g>
                <g transform="matrix(6.779307,0,0,3.780952,-822.616094,-1715.78514)">
                    <g transform="matrix(0.484731,0,0,0.946386,23.810249,128.824736)">
                        <path d="M526.574,459.298C548.315,459.298 568.765,463.442 587.925,471.731C607.084,480.02 623.798,491.298 638.065,505.565C652.333,519.833 663.611,536.546 671.9,555.706C680.189,574.865 684.333,595.315 684.333,617.056C684.333,638.798 680.189,659.316 671.9,678.611C663.611,697.906 652.333,714.688 638.065,728.955C623.798,743.223 607.084,754.501 587.925,762.79C568.765,771.079 548.315,775.223 526.574,775.223L384.713,775.223L384.713,714.076L526.574,714.076C539.891,714.076 552.392,711.494 564.078,706.331C575.763,701.167 586.022,694.237 594.855,685.541C603.687,676.844 610.617,666.585 615.645,654.764C620.672,642.942 623.186,630.373 623.186,617.056C623.186,603.74 620.672,591.239 615.645,579.553C610.617,567.867 603.687,557.608 594.855,548.776C586.022,539.944 575.763,533.014 564.078,527.986C552.392,522.958 539.891,520.444 526.574,520.444L384.713,520.444L384.713,459.298L526.574,459.298Z" style="fill:rgb(1,67,130);fill-rule:nonzero;"/>
                    </g>
                    <g transform="matrix(0.833889,0,0,1.62808,-52.423173,-3978.470068)">
                        <rect x="291" y="2861" width="38.926" height="38.926" style="fill:rgb(1,67,130);"/>
                    </g>
                    <g transform="matrix(0.833889,0,0,1.62808,-89.990707,-3905.1234)">
                        <rect x="291" y="2861" width="38.926" height="38.926" style="fill:rgb(234,164,22);"/>
                    </g>
                    <g transform="matrix(0.476273,0,0,0.929872,30.057813,-2023.041124)">
                        <rect x="291" y="2861" width="38.926" height="38.926" style="fill:rgb(1,67,130);"/>
                    </g>
                </g>
            </g>
        </g>
    </g>
</svg>
